<?xml version="1.0" standalone="no"?>
<!DOCTYPE svg PUBLIC "-//W3C//DTD SVG 20010904//EN"
 "http://www.w3.org/TR/2001/REC-SVG-20010904/DTD/svg10.dtd">
<svg version="1.0" xmlns="http://www.w3.org/2000/svg"
 width="240.000000pt" height="240.000000pt" viewBox="0 0 240.000000 240.000000"
 preserveAspectRatio="xMidYMid meet">
<metadata>
Created by potrace 1.16, written by Peter Selinger 2001-2019
</metadata>
<g transform="translate(0.000000,240.000000) scale(0.100000,-0.100000)"
fill="#000000" stroke="none">
<path d="M0 1200 l0 -1200 1200 0 1200 0 0 1200 0 1200 -1200 0 -1200 0 0
-1200z m1308 488 c289 -271 452 -433 452 -449 0 -23 -36 -61 -55 -57 -7 2
-120 104 -250 228 -130 124 -244 226 -253 228 -11 2 -105 -82 -254 -228 -131
-126 -245 -230 -253 -230 -20 0 -55 36 -55 58 0 16 102 119 392 393 170 160
167 159 276 57z m-178 -356 l0 -87 70 0 70 0 0 87 c0 48 4 89 9 92 13 9 74
-42 98 -82 44 -71 25 -183 -38 -236 l-29 -25 0 -145 0 -146 110 0 110 0 0 209
c0 177 2 212 16 225 21 21 40 20 64 -4 19 -19 20 -33 20 -250 l0 -231 -25 -24
c-24 -25 -27 -25 -187 -25 -90 0 -170 5 -178 10 -11 7 -16 34 -20 97 -4 69 -8
88 -20 88 -12 0 -16 -19 -20 -88 -4 -63 -9 -90 -20 -97 -8 -5 -88 -10 -176
-10 -145 0 -164 2 -185 19 l-24 19 0 241 c0 147 4 244 10 249 21 20 53 23 69
7 14 -14 16 -47 16 -226 l0 -210 113 3 112 3 3 138 3 138 -31 26 c-68 57 -89
157 -50 238 20 42 86 99 102 89 4 -3 8 -44 8 -92z"/>
</g>
</svg>
